<svg width="88" height="32" viewBox="0 0 88 32" fill="none" xmlns="http://www.w3.org/2000/svg">
<path d="M25.1565 4.09239H4.49994L5.98803 0H26.6446L25.1565 4.09239ZM24.4125 6.13858H3.74659L2.2585 10.231H22.9151L24.4125 6.13858ZM22.1803 12.2586H1.51446L0.0263672 16.3509H20.6643L22.1803 12.2586Z" fill="#009FDF"/>
<path d="M74.375 26.5912H78.0952C78.624 26.6544 79.1602 26.5864 79.6565 26.3934C80.1528 26.2004 80.594 25.8882 80.9412 25.4844C81.4516 24.8166 81.7086 23.9894 81.6667 23.1499C81.7016 22.6157 81.6035 22.0812 81.3811 21.5943C81.1587 21.1073 80.819 20.6831 80.3925 20.3597C79.7019 19.9078 78.8807 19.6984 78.058 19.7644H74.375V26.5912ZM69.4922 30.7115V6.13862H85.4799L84.0755 10.2589H74.375V15.6999H78.3278C81.5179 15.6999 83.1734 16.4626 84.3173 17.4392C85.1352 18.1635 85.7785 19.0635 86.1989 20.0719C86.6193 21.0803 86.8059 22.1707 86.7448 23.2615C86.8076 24.4362 86.5759 25.6078 86.0707 26.6701C85.5656 27.7324 84.803 28.6517 83.8523 29.3443C82.3177 30.4046 80.7087 30.7022 77.4349 30.7022L69.4922 30.7115ZM55.3368 30.7115V10.2496H48.2311V6.13862H67.9576L66.5532 10.2589H60.2661V30.7208L55.3368 30.7115ZM35.6474 15.9789H38.4376C39.0083 16.0179 39.5815 15.9741 40.1396 15.8487C40.72 15.6633 41.2202 15.2862 41.5581 14.7793C41.8961 14.2723 42.0518 13.6655 41.9997 13.0585C42.0772 12.4553 41.9305 11.8446 41.5877 11.3423C41.2448 10.84 40.7296 10.481 40.1396 10.3333C39.5303 10.1918 38.9043 10.1355 38.2795 10.1659H35.6474V15.9789ZM35.6474 20.2294V26.675H39.0515C39.9896 26.7822 40.9328 26.5222 41.6835 25.9495C42.0295 25.6289 42.3005 25.236 42.4774 24.7987C42.6542 24.3615 42.7325 23.8906 42.7066 23.4196C42.7214 22.6672 42.4931 21.93 42.0555 21.3176C41.3301 20.3876 40.4372 20.2108 38.9119 20.2108L35.6474 20.2294ZM43.5157 17.6345V17.7182C44.345 18.0374 45.1199 18.4829 45.813 19.0389C46.5136 19.6204 47.0673 20.3588 47.4293 21.1942C47.7912 22.0297 47.9512 22.9387 47.8963 23.8475C47.8963 27.2051 46.1106 29.6326 43.1809 30.3581C42.0131 30.6436 40.8103 30.7595 39.6095 30.7022H30.7646V6.13862H38.6329C39.8826 6.09293 41.133 6.20859 42.3532 6.48275C45.1991 7.24542 47.0685 9.20791 47.0685 12.3051C47.0918 13.0435 46.9644 13.7789 46.6942 14.4665C46.424 15.1541 46.0165 15.7795 45.4967 16.3045C44.9447 16.865 44.2873 17.3107 43.5622 17.6159L43.5157 17.6345Z" fill="#0A2973"/>
</svg>
