<svg width="48" height="48" viewBox="0 0 48 48" fill="none" xmlns="http://www.w3.org/2000/svg">
<rect width="48" height="48" rx="8" fill="#F2F7FB"/>
<path d="M14.4135 22.7445C13.8181 22.513 13.5204 22.3972 13.4335 22.2304C13.3582 22.0858 13.3581 21.9135 13.4333 21.7689C13.52 21.602 13.8175 21.4858 14.4126 21.2536L31.3003 14.6633C31.8375 14.4536 32.1061 14.3488 32.2777 14.4062C32.4268 14.456 32.5437 14.5729 32.5935 14.722C32.6509 14.8936 32.5461 15.1622 32.3364 15.6994L25.7461 32.5871C25.5139 33.1822 25.3977 33.4797 25.2308 33.5664C25.0862 33.6416 24.9139 33.6415 24.7693 33.5662C24.6025 33.4793 24.4867 33.1816 24.2552 32.5862L21.6271 25.8282C21.5801 25.7074 21.5566 25.647 21.5203 25.5961C21.4881 25.551 21.4487 25.5115 21.4036 25.4794C21.3527 25.4431 21.2923 25.4196 21.1715 25.3726L14.4135 22.7445Z" stroke="#333333" stroke-width="2" stroke-linecap="round" stroke-linejoin="round"/>
</svg>
