<svg width="16" height="16" viewBox="0 0 16 16" fill="none" xmlns="http://www.w3.org/2000/svg">
<path d="M12.5 4.7275V2.5C12.5 2.23478 12.3946 1.98043 12.2071 1.79289C12.0196 1.60536 11.7652 1.5 11.5 1.5H4.5C4.23478 1.5 3.98043 1.60536 3.79289 1.79289C3.60536 1.98043 3.5 2.23478 3.5 2.5V4.75C3.50046 4.90523 3.53687 5.05824 3.60638 5.19704C3.67589 5.33584 3.7766 5.45665 3.90062 5.55L7.16687 8L3.9 10.45C3.77605 10.5434 3.67543 10.6642 3.60603 10.803C3.53663 10.9418 3.50034 11.0948 3.5 11.25V13.5C3.5 13.7652 3.60536 14.0196 3.79289 14.2071C3.98043 14.3946 4.23478 14.5 4.5 14.5H11.5C11.7652 14.5 12.0196 14.3946 12.2071 14.2071C12.3946 14.0196 12.5 13.7652 12.5 13.5V11.2725C12.5 11.1178 12.4641 10.9652 12.3951 10.8267C12.3262 10.6882 12.226 10.5676 12.1025 10.4744L8.82875 8L12.1025 5.52563C12.2258 5.43224 12.3258 5.31161 12.3948 5.17315C12.4638 5.0347 12.4998 4.88218 12.5 4.7275Z" fill="white"/>
</svg>
