<svg width="24" height="24" viewBox="0 0 24 24" fill="none" xmlns="http://www.w3.org/2000/svg">
<path d="M9 8.0001V20.0001M15 4.0001V16.0001M4.64018 4.36692L7.71963 6.93313C8.46132 7.5512 9.53868 7.5512 10.2804 6.93313L13.7196 4.06707C14.4613 3.449 15.5387 3.449 16.2804 4.06707L20.2804 7.40041C20.7364 7.7804 21 8.34329 21 8.93685V18.8651C21 19.7129 20.0111 20.1761 19.3598 19.6333L16.2804 17.0671C15.5387 16.449 14.4613 16.449 13.7196 17.0671L10.2804 19.9331C9.53868 20.5512 8.46132 20.5512 7.71963 19.9331L3.71963 16.5998C3.26365 16.2198 3 15.6569 3 15.0633V5.13514C3 4.2873 3.98886 3.82415 4.64018 4.36692Z" stroke="#00AAFF" stroke-width="2" stroke-linecap="round"/>
</svg>
