<svg width="48" height="48" viewBox="0 0 48 48" fill="none" xmlns="http://www.w3.org/2000/svg">
<rect width="48" height="48" rx="8" fill="white"/>
<path d="M35.4871 30.7115L33.2371 31.4615C33.0659 31.5188 32.8798 31.5124 32.7129 31.4435C32.5461 31.3746 32.4096 31.2479 32.3287 31.0865L29.5359 25.4999H21.7499C21.551 25.4999 21.3603 25.4209 21.2196 25.2803C21.079 25.1396 20.9999 24.9489 20.9999 24.7499V21.9693C19.7919 22.33 18.7539 23.1133 18.0758 24.1761C17.3977 25.239 17.1247 26.5104 17.3067 27.7579C17.4887 29.0055 18.1136 30.1458 19.0672 30.9706C20.0207 31.7954 21.2392 32.2495 22.4999 32.2499C24.929 32.2499 27.1959 30.5578 27.7734 28.3124C27.798 28.217 27.8412 28.1274 27.9004 28.0487C27.9597 27.9699 28.0339 27.9037 28.1188 27.8536C28.2036 27.8035 28.2975 27.7707 28.3951 27.7569C28.4927 27.7432 28.592 27.7488 28.6874 27.7734C28.7829 27.798 28.8725 27.8412 28.9512 27.9004C29.0299 27.9597 29.0962 28.0339 29.1463 28.1188C29.1963 28.2036 29.2292 28.2976 29.2429 28.3951C29.2567 28.4927 29.2511 28.592 29.2265 28.6874C28.4709 31.6218 25.6424 33.7499 22.4999 33.7499C20.8411 33.749 19.2407 33.1372 18.0042 32.0314C16.7677 30.9256 15.9817 29.4032 15.7963 27.7547C15.6108 26.1063 16.0388 24.4473 16.9986 23.0943C17.9584 21.7414 19.3828 20.7892 20.9999 20.4196V18.6384C20.3957 18.4582 19.8765 18.0666 19.5372 17.5351C19.198 17.0036 19.0614 16.3678 19.1524 15.7438C19.2435 15.1199 19.556 14.5496 20.033 14.1372C20.5099 13.7248 21.1194 13.4978 21.7499 13.4978C22.3805 13.4978 22.9899 13.7248 23.4669 14.1372C23.9438 14.5496 24.2564 15.1199 24.3474 15.7438C24.4385 16.3678 24.3019 17.0036 23.9626 17.5351C23.6234 18.0666 23.1042 18.4582 22.4999 18.6384V20.2499H27.7499C27.9489 20.2499 28.1396 20.329 28.2803 20.4696C28.4209 20.6103 28.4999 20.801 28.4999 20.9999C28.4999 21.1989 28.4209 21.3896 28.2803 21.5303C28.1396 21.6709 27.9489 21.7499 27.7499 21.7499H22.4999V23.9999H29.9999C30.1391 24 30.2755 24.0388 30.3939 24.112C30.5123 24.1852 30.608 24.2899 30.6702 24.4143L33.3796 29.8331L35.0128 29.2884C35.2015 29.2255 35.4074 29.2401 35.5854 29.3291C35.7633 29.418 35.8986 29.574 35.9615 29.7628C36.0244 29.9515 36.0098 30.1574 35.9208 30.3354C35.8318 30.5133 35.6758 30.6486 35.4871 30.7115Z" fill="#00AAFF"/>
<circle cx="22.5" cy="27" r="3.75" fill="#00AAFF"/>
</svg>
