<svg width="48" height="48" viewBox="0 0 48 48" fill="none" xmlns="http://www.w3.org/2000/svg">
<rect width="48" height="48" rx="8" fill="white"/>
<path d="M35.25 23.25V27.75C35.25 28.1478 35.092 28.5294 34.8107 28.8107C34.5294 29.092 34.1478 29.25 33.75 29.25H33V30.75C33 30.9489 32.921 31.1397 32.7803 31.2803C32.6397 31.421 32.4489 31.5 32.25 31.5C32.0511 31.5 31.8603 31.421 31.7197 31.2803C31.579 31.1397 31.5 30.9489 31.5 30.75V29.25H16.5V30.75C16.5 30.9489 16.421 31.1397 16.2803 31.2803C16.1397 31.421 15.9489 31.5 15.75 31.5C15.5511 31.5 15.3603 31.421 15.2197 31.2803C15.079 31.1397 15 30.9489 15 30.75V29.25H14.25C13.8522 29.25 13.4706 29.092 13.1893 28.8107C12.908 28.5294 12.75 28.1478 12.75 27.75V23.25C12.75 22.8522 12.908 22.4706 13.1893 22.1893C13.4706 21.908 13.8522 21.75 14.25 21.75H15C15.3978 21.75 15.7794 21.908 16.0607 22.1893C16.342 22.4706 16.5 22.8522 16.5 23.25V24.75C16.5 24.9489 16.579 25.1397 16.7197 25.2803C16.8603 25.421 17.0511 25.5 17.25 25.5H30.75C30.9489 25.5 31.1397 25.421 31.2803 25.2803C31.421 25.1397 31.5 24.9489 31.5 24.75V23.25C31.5 22.8522 31.658 22.4706 31.9393 22.1893C32.2206 21.908 32.6022 21.75 33 21.75H33.75C34.1478 21.75 34.5294 21.908 34.8107 22.1893C35.092 22.4706 35.25 22.8522 35.25 23.25ZM30 23.25C30 22.4544 30.3161 21.6913 30.8787 21.1287C31.4413 20.5661 32.2044 20.25 33 20.25H34.125C34.2245 20.25 34.3198 20.2105 34.3902 20.1402C34.4605 20.0698 34.5 19.9745 34.5 19.875V18.75C34.5 18.3522 34.342 17.9706 34.0607 17.6893C33.7794 17.408 33.3978 17.25 33 17.25H25.125C25.0255 17.25 24.9302 17.2895 24.8598 17.3598C24.7895 17.4302 24.75 17.5255 24.75 17.625V24H30V23.25ZM13.875 20.25H15C15.7956 20.25 16.5587 20.5661 17.1213 21.1287C17.6839 21.6913 18 22.4544 18 23.25V24H23.25V17.625C23.25 17.5255 23.2105 17.4302 23.1402 17.3598C23.0698 17.2895 22.9745 17.25 22.875 17.25H15C14.6022 17.25 14.2206 17.408 13.9393 17.6893C13.658 17.9706 13.5 18.3522 13.5 18.75V19.875C13.5 19.9745 13.5395 20.0698 13.6098 20.1402C13.6802 20.2105 13.7755 20.25 13.875 20.25Z" fill="#00AAFF"/>
</svg>
