<svg width="25" height="24" viewBox="0 0 25 24" fill="none" xmlns="http://www.w3.org/2000/svg">
<path d="M4.38611 10.7445C3.79076 10.513 3.49309 10.3972 3.40618 10.2304C3.33085 10.0858 3.33075 9.91354 3.40591 9.76886C3.49262 9.60195 3.79016 9.48584 4.38523 9.25361L21.273 2.66327C21.8102 2.45364 22.0787 2.34883 22.2504 2.40616C22.3994 2.45596 22.5164 2.57292 22.5662 2.72197C22.6235 2.8936 22.5187 3.16219 22.3091 3.69937L15.7187 20.5871C15.4865 21.1822 15.3704 21.4797 15.2035 21.5664C15.0588 21.6416 14.8866 21.6415 14.742 21.5662C14.5752 21.4793 14.4594 21.1816 14.2279 20.5862L11.5998 13.8282C11.5528 13.7074 11.5293 13.647 11.493 13.5961C11.4608 13.551 11.4214 13.5115 11.3763 13.4794C11.3254 13.4431 11.265 13.4196 11.1441 13.3726L4.38611 10.7445Z" stroke="white" stroke-width="2" stroke-linecap="round" stroke-linejoin="round"/>
</svg>
