<svg width="25" height="24" viewBox="0 0 25 24" fill="none" xmlns="http://www.w3.org/2000/svg">
<g id="settings/2">
<path id="Icon" d="M4.97266 8H16.9727M16.9727 8C16.9727 9.65685 18.3158 11 19.9727 11C21.6295 11 22.9727 9.65685 22.9727 8C22.9727 6.34315 21.6295 5 19.9727 5C18.3158 5 16.9727 6.34315 16.9727 8ZM9.97266 16H20.9727M9.97266 16C9.97266 17.6569 8.62951 19 6.97266 19C5.3158 19 3.97266 17.6569 3.97266 16C3.97266 14.3431 5.3158 13 6.97266 13C8.62951 13 9.97266 14.3431 9.97266 16Z" stroke="#00AAFF" stroke-width="2" stroke-linecap="round"/>
</g>
</svg>
